HIERARCHY
ROOT Hips
{
	OFFSET 0.000000 0.000000 0.000000 
	CHANNELS 6 Xposition Yposition Zposition Yrotation Zrotation Xrotation 
	JOINT Lumbar
	{
		OFFSET 0.000000 0.000000 0.000000 
		CHANNELS 3 Zrotation Xrotation Yrotation
		JOINT Neck
		{
			OFFSET 0.000000 0.445665 0.000000 
			CHANNELS 3 Zrotation Xrotation Yrotation
			End Site
			{
				OFFSET 0.000000 0.227535 0.000000 
			}
		}
		JOINT RightShoulder
		{
			OFFSET 0.019635 0.377685 0.194865 
			CHANNELS 3 Zrotation Xrotation Yrotation
			JOINT RightElbow
			{
				OFFSET 0.000000 -0.243375 0.000000 
				CHANNELS 2 Zrotation Yrotation
				JOINT RightWrist
				{
					OFFSET 0.000000 -0.264825 0.000000 
					CHANNELS 2 Zrotation Xrotation
					End Site
					{
						OFFSET 0.006600 -0.176220 0.000990 
					}
				}
			}
		}
		JOINT LeftShoulder
		{
			OFFSET 0.019635 0.377685 -0.194865 
			CHANNELS 3 Zrotation Xrotation Yrotation
			JOINT LeftElbow
			{
				OFFSET 0.000000 -0.243375 0.000000 
				CHANNELS 2 Zrotation Yrotation
				JOINT LeftWrist
				{
					OFFSET 0.000000 -0.264825 0.000000 
					CHANNELS 2 Zrotation Xrotation
					End Site
					{
						OFFSET 0.006600 -0.176220 -0.000990 
					}
				}
			}
		}
	}
	JOINT RightHip
	{
		OFFSET 0.052140 -0.069960 0.075570 
		CHANNELS 3 Zrotation Xrotation Yrotation
		JOINT RightKnee
		{
			OFFSET 0.000000 -0.402270 0.000000 
			CHANNELS 1 Zrotation
			JOINT RightAnkle
			{
				OFFSET 0.000000 -0.404085 0.000000 
				CHANNELS 3 Zrotation Xrotation Yrotation
				End Site
				{
					OFFSET 0.204105 -0.089430 0.008415 
				}
			}
		}
	}
	JOINT LeftHip
	{
		OFFSET 0.052140 -0.069960 -0.075570 
		CHANNELS 3 Zrotation Xrotation Yrotation
		JOINT LeftKnee
		{
			OFFSET 0.000000 -0.402270 0.000000 
			CHANNELS 1 Zrotation
			JOINT LeftAnkle
			{
				OFFSET 0.000000 -0.404085 0.000000 
				CHANNELS 3 Zrotation Xrotation Yrotation
				End Site
				{
					OFFSET 0.204105 -0.089430 -0.008415 
				}
			}
		}
	}
}
MOTION
Frames: 16
Frame Time: 0.02
0.00139 0.00053 -0.00147 39.56205 -32.23744 -8.92662 48.76111 1.77129 -4.53494 12.15945 -0.25362 -0.36896 7.55171 -9.3838 25.77693 25.2306 64.56005 0.8234 -5.39185 10.64371 7.331 -22.46485 46.68221 -87.58719 1.81465 -1.13042 44.56598 1.48691 -2.50148 -19.09644 -6.23583 -3.24365 -2.28913 48.02784 -0.24106 -6.79394 -24.87897 -6.73948 4.04567 2.74561
0.00148 0.00041 -0.00184 39.57493 -32.29103 -8.94572 48.79599 1.79623 -4.64854 11.61642 -0.1903 -0.36972 5.33323 -9.3643 21.27355 24.98184 69.53976 1.61119 -4.27411 6.69681 8.31849 -21.62956 46.20783 -89.47493 2.98864 -1.20689 44.5734 1.43503 -2.76276 -19.07863 -6.2323 -3.21079 -2.27238 48.05822 -0.10104 -6.0886 -24.86905 -6.72549 3.96388 2.70191
0.00156 0.00029 -0.00221 39.58776 -32.34443 -8.96479 48.83086 1.82113 -4.76166 11.07413 -0.12712 -0.37049 3.11874 -9.34596 16.78535 24.7341 74.49818 2.39558 -3.16111 2.75803 9.30395 -20.79655 45.73526 -91.35685 4.15964 -1.28298 44.58071 1.38333 -3.02318 -19.06085 -6.22879 -3.17802 -2.25567 48.08842 0.03865 -5.38497 -24.85913 -6.71153 3.88232 2.65832
0.00165 0.00017 -0.00258 39.6006 -32.39785 -8.98384 48.86564 1.846 -4.87489 10.53261 -0.06398 -0.37125 0.90659 -9.32673 12.29613 24.48616 79.46138 3.18075 -2.04707 -1.17742 10.2887 -19.96406 45.26239 -93.23854 5.33006 -1.35915 44.58809 1.33161 -3.28363 -19.04309 -6.22527 -3.14525 -2.23897 48.11869 0.17825 -4.68173 -24.84923 -6.69758 3.80078 2.61474
0.00173 5e-05 -0.00295 39.6135 -32.45145 -9.00291 48.90041 1.87089 -4.98864 9.99073 -0.00075 -0.37201 -1.30837 -9.30582 7.79102 24.23705 84.44868 3.96979 -0.92769 -5.1193 11.27476 -19.12863 44.78756 -95.12671 6.50338 -1.43586 44.59561 1.27969 -3.54499 -19.02532 -6.22174 -3.11239 -2.22222 48.14917 0.31814 -3.97692 -24.83935 -6.68359 3.71903 2.57106
0.00182 -6e-05 -0.00332 39.62618 -32.50445 -9.02198 48.93546 1.8958 -5.10043 9.44764 0.06234 -0.37278 -3.52164 -9.29281 3.33847 23.99221 89.34646 4.74441 0.17191 -9.0512 12.25868 -18.30033 44.31978 -96.99577 7.66951 -1.51071 44.60249 1.22845 -3.80344 -19.00749 -6.21826 -3.07981 -2.20562 48.17876 0.45741 -3.27583 -24.82936 -6.66972 3.63787 2.52767
0.0019 -0.00018 -0.00369 39.63927 -32.5586 -9.04103 48.96992 1.92066 -5.21605 8.90753 0.12565 -0.37354 -5.7361 -9.26421 -1.21402 23.73913 94.41707 5.54686 1.30971 -12.99914 13.24672 -17.46065 43.83837 -98.89935 8.84841 -1.58891 44.61065 1.17591 -4.06734 -18.98981 -6.21467 -3.0467 -2.18873 48.21011 0.59777 -2.56807 -24.81959 -6.65562 3.55563 2.48375
0.00199 -0.0003 -0.00406 39.65204 -32.61169 -9.0601 49.00491 1.94556 -5.3281 8.36475 0.18875 -0.3743 -7.94906 -9.24947 -5.67602 23.49353 99.33177 6.32427 2.41299 -16.93174 14.22932 -16.62773 43.36946 -100.77451 10.01628 -1.66458 44.61763 1.12454 -4.32642 -18.972 -6.21119 -3.01407 -2.1721 48.23985 0.73714 -1.86639 -24.80962 -6.64173 3.47436 2.4403
0.00208 -0.00041 -0.00442 39.66417 -32.66349 -9.07917 49.04062 1.97052 -5.43599 7.81798 0.25164 -0.37507 -10.16322 -9.2539 -10.02245 23.25746 104.04315 7.06873 3.47152 -20.85017 15.21237 -15.8175 42.91597 -102.60218 11.16829 -1.73497 44.62314 1.0747 -4.57893 -18.95397 -6.20784 -2.98204 -2.15582 48.26756 0.87532 -1.17204 -24.79937 -6.62812 3.39434 2.39746
0.00214 -0.00055 -0.0048 39.67922 -32.72273 -9.09819 49.0724 1.99517 -5.56844 7.29197 0.31591 -0.3758 -12.37971 -9.15476 -15.01901 22.96775 109.88606 7.99573 4.77984 -24.86411 16.21424 -14.92004 42.37418 -104.66483 12.40446 -1.82916 44.63702 1.01639 -4.86721 -18.93701 -6.20374 -2.94663 -2.13761 48.30677 1.02039 -0.43519 -24.79063 -6.61294 3.30729 2.3512
0.00227 -0.00063 -0.00515 39.6886 -32.76626 -9.11734 49.11235 2.02046 -5.64864 6.72373 0.37715 -0.37661 -14.58492 -9.2697 -18.65319 22.79043 113.36642 8.54218 5.56611 -28.66686 17.16255 -14.17903 42.01839 -106.256 13.46743 -1.87733 44.63331 0.97574 -5.0813 -18.91793 -6.20121 -2.9183 -2.12343 48.32183 1.15087 0.21167 -24.77877 -6.60105 3.23498 2.31212
0.00258 -0.00058 -0.00545 39.67836 -32.76637 -9.13681 49.1759 2.04762 -5.58761 6.02547 0.43075 -0.37765 -16.81101 -10.01439 -18.43688 22.93101 110.09889 7.99691 4.86547 -31.96388 18.0799 -14.10682 42.18047 -106.33417 14.01295 -1.76243 44.58039 0.98561 -5.07908 -18.89192 -6.20331 -2.91008 -2.12091 48.26904 1.24129 0.61172 -24.75759 -6.59846 3.20443 2.29329
0.00295 -0.00047 -0.00572 39.66324 -32.75078 -9.15642 49.24737 2.07538 -5.47377 5.28775 0.4811 -0.37875 -19.01489 -10.96605 -16.87353 23.18271 104.51047 7.0788 3.65121 -35.03346 18.92417 -14.15373 42.52794 -105.97408 14.39073 -1.60734 44.51001 1.01284 -5.00456 -18.86399 -6.20694 -2.90887 -2.12235 48.19233 1.31696 0.92101 -24.73342 -6.59912 3.18849 2.28159
0.00329 -0.00039 -0.006 39.6529 -32.74256 -9.17604 49.31452 2.10278 -5.3826 4.57685 0.53259 -0.37982 -21.19681 -11.79559 -15.99951 23.37734 100.15403 6.36164 2.70678 -38.16123 19.72337 -13.98146 42.78565 -105.96474 14.87494 -1.49569 44.44816 1.03077 -4.97163 -18.83764 -6.20968 -2.90398 -2.12158 48.12751 1.39953 1.2723 -24.71109 -6.59811 3.16497 2.26625
0.00366 -0.0003 -0.0063 39.63141 -32.73327 -9.19542 49.38501 2.1306 -5.29666 3.82692 0.58578 -0.38092 -23.51945 -12.74469 -14.79622 23.59984 95.03493 5.50866 1.60536 -41.48653 20.84393 -14.47962 43.06692 -105.33722 15.23815 -1.28097 44.38357 1.05468 -4.90234 -18.80825 -6.21324 -2.90111 -2.12247 48.05812 1.48168 1.62187 -24.68668 -6.5979 3.1453 2.25249
0.00398 -0.00021 -0.00656 39.63239 -32.72253 -9.21524 49.45007 2.15763 -5.18764 3.15074 0.63428 -0.38195 -25.53692 -13.49299 -13.96045 23.79074 90.9664 4.85276 0.71199 -44.33737 21.28907 -13.64296 43.34316 -105.86502 15.80504 -1.26729 44.32078 1.07026 -4.89083 -18.78478 -6.21548 -2.89582 -2.12095 47.99287 1.56065 1.95145 -24.66592 -6.59682 3.12126 2.23726
